<svg width="28" height="28" viewBox="0 0 28 28" fill="none" xmlns="http://www.w3.org/2000/svg">
<path d="M24.23 8.04604C24.0314 7.70192 23.747 7.41515 23.4045 7.2137C23.0621 7.01225 22.6732 6.903 22.276 6.89661H7.56323L6.89656 4.29889C6.8292 4.04812 6.67893 3.82755 6.47021 3.6731C6.26149 3.51865 6.00663 3.43942 5.74713 3.44831H3.44826C3.14341 3.44831 2.85105 3.56941 2.63549 3.78497C2.41993 4.00053 2.29883 4.29289 2.29883 4.59774C2.29883 4.90259 2.41993 5.19495 2.63549 5.41051C2.85105 5.62607 3.14341 5.74717 3.44826 5.74717H4.87356L8.04599 17.5404C8.11335 17.7911 8.26363 18.0117 8.47235 18.1661C8.68107 18.3206 8.93593 18.3998 9.19543 18.3909H19.5403C19.7526 18.3903 19.9605 18.3309 20.1411 18.2193C20.3217 18.1077 20.4678 17.9483 20.5633 17.7588L24.3335 10.2185C24.4969 9.87596 24.5729 9.49831 24.5549 9.11925C24.5368 8.74018 24.4252 8.37148 24.23 8.04604ZM18.8277 16.0921H10.069L8.19542 9.19547H22.276L18.8277 16.0921Z" fill="white"/>
<path d="M8.62063 24.1381C9.57286 24.1381 10.3448 23.3662 10.3448 22.414C10.3448 21.4617 9.57286 20.6898 8.62063 20.6898C7.66841 20.6898 6.89648 21.4617 6.89648 22.414C6.89648 23.3662 7.66841 24.1381 8.62063 24.1381Z" fill="white"/>
<path d="M20.1153 24.1381C21.0675 24.1381 21.8394 23.3662 21.8394 22.414C21.8394 21.4617 21.0675 20.6898 20.1153 20.6898C19.163 20.6898 18.3911 21.4617 18.3911 22.414C18.3911 23.3662 19.163 24.1381 20.1153 24.1381Z" fill="white"/>
</svg>
